<svg xmlns="http://www.w3.org/2000/svg" width="600" height="80" viewBox="0 0 600 80"><rect width="100%" height="100%" fill="#DDDDDD"/><path fill="#999999" d="m239.36 25.54-8.58 10.5-1 1.24q.84-.42 1.81-.65t2.09-.23q1.64 0 3.19.54t2.73 1.63 1.9 2.71.72 3.78q0 2.02-.74 3.79t-2.08 3.09-3.23 2.08-4.17.76q-2.32 0-4.16-.74t-3.14-2.07-1.99-3.2-.69-4.15q0-2.04.83-4.19t2.57-4.47l6.9-9.26q.36-.48 1.05-.82t1.59-.34zm-7.46 25.2q1.18 0 2.17-.4t1.7-1.12 1.11-1.69.4-2.11q0-1.24-.38-2.23t-1.08-1.68-1.68-1.05-2.16-.36-2.14.4-1.64 1.11-1.06 1.68-.38 2.09q0 1.2.33 2.19t.98 1.69 1.61 1.09 2.22.39M265.74 40q0 3.78-.81 6.57t-2.24 4.61-3.38 2.71-4.21.89-4.19-.89-3.35-2.71-2.22-4.61-.8-6.57q0-3.8.8-6.58t2.22-4.6 3.35-2.71 4.19-.89 4.21.89 3.38 2.71 2.24 4.6.81 6.58m-5.1 0q0-3.14-.46-5.2t-1.23-3.28-1.77-1.71-2.08-.49q-1.06 0-2.05.49t-1.75 1.71-1.21 3.28-.45 5.2.45 5.2 1.21 3.28 1.75 1.71 2.05.49q1.08 0 2.08-.49t1.77-1.71 1.23-3.28.46-5.2m28.3 0q0 3.78-.81 6.57t-2.24 4.61-3.38 2.71-4.21.89-4.19-.89-3.35-2.71-2.22-4.61-.8-6.57q0-3.8.8-6.58t2.22-4.6 3.35-2.71 4.19-.89 4.21.89 3.38 2.71 2.24 4.6.81 6.58m-5.1 0q0-3.14-.46-5.2t-1.23-3.28-1.77-1.71-2.08-.49q-1.06 0-2.05.49t-1.75 1.71-1.21 3.28-.45 5.2.45 5.2 1.21 3.28 1.75 1.71 2.05.49q1.08 0 2.08-.49t1.77-1.71 1.23-3.28.46-5.2m36.86 7.84-2.62 2.58-6.78-6.78-6.84 6.82-2.62-2.58 6.84-6.86-6.52-6.52 2.6-2.6 6.52 6.52 6.48-6.48 2.64 2.6-6.5 6.5zm23.48 3.08q1.22 0 2.14-.35t1.55-.97.95-1.48.32-1.86q0-2.38-1.32-3.6t-3.64-1.22-3.64 1.22-1.32 3.6q0 1 .32 1.86t.95 1.48 1.55.97 2.14.35m0-21.98q-1.1 0-1.9.34t-1.33.91-.78 1.31-.25 1.56q0 .86.21 1.67t.71 1.44 1.32 1.01 2.02.38 2.02-.38 1.32-1.01.71-1.44.21-1.67q0-.82-.26-1.56t-.78-1.31-1.32-.91-1.9-.34m4.88 10.44q2.64.86 3.9 2.63t1.26 4.33q0 1.92-.73 3.48t-2.05 2.66-3.17 1.7-4.09.6-4.09-.6-3.17-1.7-2.05-2.66-.73-3.48q0-2.56 1.26-4.33t3.9-2.63q-2.1-.88-3.15-2.5t-1.05-3.9q0-1.64.67-3.06t1.87-2.47 2.87-1.64 3.67-.59 3.67.59 2.87 1.64 1.87 2.47.67 3.06q0 2.28-1.05 3.9t-3.15 2.5m28.92.62q0 3.78-.81 6.57t-2.24 4.61-3.38 2.71-4.21.89-4.19-.89-3.35-2.71-2.22-4.61-.8-6.57q0-3.8.8-6.58t2.22-4.6 3.35-2.71 4.19-.89 4.21.89 3.38 2.71 2.24 4.6.81 6.58m-5.1 0q0-3.14-.46-5.2t-1.23-3.28-1.77-1.71-2.08-.49q-1.06 0-2.05.49t-1.75 1.71-1.21 3.28-.45 5.2.45 5.2 1.21 3.28 1.75 1.71 2.05.49q1.08 0 2.08-.49t1.77-1.71 1.23-3.28.46-5.2"/></svg>